<svg xmlns="http://www.w3.org/2000/svg" viewBox="0 0 24 24" fill="none">
  <path
    d="M4 16.5c1.2 0 2.2-.9 2.2-2.1v-4.8c0-1.2-1-2.1-2.2-2.1S1.8 8.4 1.8 9.6v4.8c0 1.2 1 2.1 2.2 2.1Z"
    fill="#7DD3FC"
  />
  <path
    d="M10 20.2c1.2 0 2.2-.9 2.2-2.1V5.9c0-1.2-1-2.1-2.2-2.1S7.8 4.7 7.8 5.9v12.2c0 1.2 1 2.1 2.2 2.1Z"
    fill="#38BDF8"
  />
  <path
    d="M16 17.6c1.2 0 2.2-.9 2.2-2.1v-7c0-1.2-1-2.1-2.2-2.1s-2.2.9-2.2 2.1v7c0 1.2 1 2.1 2.2 2.1Z"
    fill="#0EA5E9"
  />
  <path
    d="M21.8 14.6c0 1.2-1 2.1-2.2 2.1s-2.2-.9-2.2-2.1v-4.2c0-1.2 1-2.1 2.2-2.1s2.2.9 2.2 2.1v4.2Z"
    fill="#0284C7"
  />
</svg>
