<svg xmlns="http://www.w3.org/2000/svg" viewBox="0 0 24 24" fill="none">
  <path
    d="M2.2 12c2.65-4.38 5.97-6.56 9.8-6.56 3.84 0 7.16 2.18 9.8 6.56-2.64 4.38-5.96 6.56-9.8 6.56-3.83 0-7.15-2.18-9.8-6.56Z"
    stroke="#7DD3FC"
    stroke-width="1.6"
    stroke-linecap="round"
    stroke-linejoin="round"
  />
  <path
    d="M4.8 12c1.94-2.75 4.33-4.13 7.2-4.13 2.88 0 5.27 1.38 7.2 4.13"
    stroke="#38BDF8"
    stroke-width="1"
    stroke-linecap="round"
    opacity="0.7"
  />
  <path
    d="M4.8 12c1.94 2.75 4.33 4.13 7.2 4.13 2.88 0 5.27-1.38 7.2-4.13"
    stroke="#38BDF8"
    stroke-width="1"
    stroke-linecap="round"
    opacity="0.7"
  />

  <path
    d="M5.3 12.1C6 12.1 6.4 11.7 6.9 11.7C7.4 11.7 7.7 12.8 8.2 12.8C8.7 12.8 9 10.1 9.5 10.1C10 10.1 10.3 14.2 10.8 14.2C11.3 14.2 11.6 8.9 12.1 8.9C12.6 8.9 12.9 15.1 13.4 15.1C13.9 15.1 14.2 10.6 14.7 10.6C15.2 10.6 15.5 12.4 16 12.4C16.5 12.4 16.9 12 17.6 12"
    stroke="#BAE6FD"
    stroke-width="1.5"
    stroke-linecap="round"
    stroke-linejoin="round"
  />
  <path
    d="M5.3 12.1C6 12.1 6.4 11.7 6.9 11.7C7.4 11.7 7.7 12.8 8.2 12.8C8.7 12.8 9 10.1 9.5 10.1C10 10.1 10.3 14.2 10.8 14.2C11.3 14.2 11.6 8.9 12.1 8.9C12.6 8.9 12.9 15.1 13.4 15.1C13.9 15.1 14.2 10.6 14.7 10.6C15.2 10.6 15.5 12.4 16 12.4C16.5 12.4 16.9 12 17.6 12"
    stroke="#0EA5E9"
    stroke-width="0.9"
    stroke-linecap="round"
    stroke-linejoin="round"
    opacity="0.9"
  />
</svg>
